<svg xmlns="http://www.w3.org/2000/svg" xmlns:xlink="http://www.w3.org/1999/xlink" version="1.1" enable-background="new 0 0 208 176" xml:space="preserve" width="208" height="220" style=""><rect id="backgroundrect" width="100%" height="100%" x="0" y="0" fill="none" stroke="none"/><g class="currentLayer" style=""><title>Layer 1</title><g id="svg_1" class="selected" fill="#000000" fill-opacity="1"><path d="M148.67203890974298,123.23020711387275 V101.61467162091353 h-16.381546731362356 c-0.3520539843424322,-1.0770052773712753 -0.7556024783237939,-2.122250467637968 -1.2064419056049107,-3.141974271341193 l11.583102893211997,-12.505511473765182 l-14.160979066573606,-15.285081149927617 l-11.585204681381583,12.503809978303705 c-0.9447658886840228,-0.4871761668308259 -1.9137026103506205,-0.9221751140761021 -2.9110138489519,-1.3027282972714902 V64.2019245897862 H93.9822852410316 v17.6812619332765 c-0.9978367125469089,0.3805531831953885 -1.9662479602678777,0.8155521304406644 -2.9110138489519,1.3027282972714902 L79.48659207703082,70.68210472587953 L65.32403669623325,85.96888737126861 L76.90819042972358,98.47269734957231 c-0.4513647936138154,1.019723803703225 -0.8543878136495475,2.0649689939699174 -1.2064419056049107,3.141974271341193 H59.319676534036546 v21.615535492959225 h16.38207209769505 c0.3520539843424322,1.077572442525101 0.7550771119910957,2.1233847979456186 1.2064419056049107,3.1431086016488434 l-11.584153733490325,12.503242813149882 l14.162555380797565,15.28678252923813 l11.584679207435952,-12.503242813149882 c0.9447658886840228,0.4866090016770006 1.9131771364049914,0.9210408999194146 2.9110138489519,1.302161248268628 v17.6812619332765 h20.027670328049016 v-17.6812619332765 c0.9973112386012796,-0.3811203483492138 1.9662479602678777,-0.8155521304406644 2.9110138489519,-1.302161248268628 l11.585204681381583,12.503242813149882 l14.160979066573606,-15.285648315081442 l-11.583102893211997,-12.504377143457532 c0.45083931966818575,-1.019723803703225 0.8543878136495475,-2.0655361591237424 1.2064419056049107,-3.1431086016488434 H148.67203890974298 zM103.99585772188976,131.5456633002609 c-9.783423716932797,0 -17.716724695838725,-8.563864999384654 -17.716724695838725,-19.122940350290868 c0,-10.559642516060041 7.933300978905928,-19.122373185137043 17.716724695838725,-19.122373185137043 c9.783949190878428,0 17.7161992218931,8.562730669077002 17.7161992218931,19.122373185137043 C121.71205694378286,122.98179830087625 113.77980680515526,131.5456633002609 103.99585772188976,131.5456633002609 z" id="svg_2" fill="#000000" fill-opacity="1"/><path d="M45.06937034031972,67.38813600086132 c0,-10.92544998601079 8.23543687544632,-19.814288074233293 18.35725289981277,-19.814288074233293 h81.90878428186424 c8.890677811833335,0 16.320594013540887,6.857330560667681 17.997842495457384,15.92992318967178 h-16.934324014804208 l23.832481137604567,25.722787803953757 l23.831430189713313,-25.722787803953757 h-16.718887983291822 c-1.7970519141639836,-17.354020183823348 -15.457798939600064,-30.895135388693085 -32.008541717066315,-30.895135388693085 H63.426623132519566 c-17.767693731532024,0 -32.22240143435475,15.601547109910978 -32.22240143435475,34.779500389405555 v58.47701913404369 h13.865148534541976 V67.38813600086132 z" id="svg_3" fill="#000000" fill-opacity="1"/><path d="M163.69266031419656,155.79557976524953 c0,10.92431565570314 -8.234911509113623,19.813721025230432 -18.35725289981277,19.813721025230432 H63.426623132519566 c-8.95898673444189,0 -16.42726113521229,-6.96792346807797 -18.027793326616024,-16.14316904079169 h16.569659086218394 L38.137058702408616,133.74391099473738 L14.304577672416979,159.46613163353732 h17.083552911877632 c1.7056228912382485,17.456673127532973 15.420491688428474,31.107814190810135 32.03849265583788,31.107814190810135 h81.90878428186424 c17.767693731532024,0 32.22292690830037,-15.602114275064801 32.22292690830037,-34.77836605909791 V97.31799334990106 h-13.865674008487606 V155.79557976524953 z" id="svg_4" fill="#000000" fill-opacity="1"/></g></g></svg>