<svg xmlns="http://www.w3.org/2000/svg" width="512.001" height="512.003" viewBox="0 0 512.001 512.003"><path d="M-634,512l-256,0V256.881C-889.524,397.554-774.683,512-634,512h0Zm256,0H-634c140.613,0,255.453-114.383,256-254.981Zm-256-40.96c-118.573,0-215.04-96.467-215.04-215.041S-752.573,40.961-634,40.961-418.961,137.427-418.961,256-515.427,471.04-634,471.04ZM-890,255.117h0V0h255.119C-775.08.475-889.525,114.919-890,255.117Zm512-.136h0C-378.545,114.858-492.989.475-633.117,0L-378,0Z" transform="translate(890.001 0.001)" fill="#fff"/></svg>