<svg xmlns="http://www.w3.org/2000/svg" width="512.001" height="512.001" viewBox="0 0 512.001 512.001"><path d="M-952,376h-512V66.722a16.758,16.758,0,0,0,.822,5.048l91.372,281.214a16.744,16.744,0,0,0,15.963,11.6h295.686a16.743,16.743,0,0,0,15.963-11.6L-952.822,71.77A16.756,16.756,0,0,0-952,66.664V376ZM-1078.543,321.4h-258.915l-80.009-246.243L-1208-77.034-998.534,75.153-1078.543,321.4ZM-1464,66.447h0L-1464-136h512V66.317A16.877,16.877,0,0,0-958.92,53l-239.214-173.8A16.686,16.686,0,0,0-1208-124a16.689,16.689,0,0,0-9.867,3.2L-1457.08,53A16.853,16.853,0,0,0-1464,66.447Z" transform="translate(1464.001 136)" fill="#fff"/></svg>