<svg xmlns="http://www.w3.org/2000/svg" xmlns:xlink="http://www.w3.org/1999/xlink" version="1.1" enable-background="new 0 0 1000 1000" xml:space="preserve" width="1000" height="1000" style=""><rect id="backgroundrect" width="100%" height="100%" x="0" y="0" fill="none" stroke="none"/>
<metadata> Svg Vector Icons : http://www.onlinewebfonts.com/icon </metadata>

<g class="currentLayer" style=""><title>Layer 1</title><g id="svg_1" class="selected" fill="#ffffff" fill-opacity="1"><g id="svg_2" fill="#ffffff" fill-opacity="1"><g id="svg_3" fill="#ffffff" fill-opacity="1"><path d="M955.7,296.9l-345-207.7c-21.4-12.9-49.1-13.3-70.9-1c-22.1,12.5-35.6,36-35.6,61.4v281.8l-58,18.1c-10.9,42.3-34.1,79.8-65.5,108.4c71.4,43.7,122.9,118.2,134.6,206c3.2,24.3,3.2,50.3,0,75.5l-0.5,3.8l17.5,10.6c11,6.6,23.6,10.1,36.4,10.1c7.2,0,14.2-1.1,21-3.2c0,0,222.9-69,296.9-92.8c68.8-22.1,103.2-71,103.2-104.4V357.3C990,332.7,976.9,309.5,955.7,296.9z M903.1,634.3l-312-187.9V178.8l312,187.8V634.3z" id="svg_4" fill="#ffffff" fill-opacity="1"/><circle cx="234.10000610351562" cy="394.29998779296875" r="155.8000030517578" id="svg_5" fill="#ffffff" fill-opacity="1"/><path d="M233.7,581.2C95.5,582,10,704.7,10,817.6c0,95.2,100.8,103.2,100.8,103.2h247.1c0,0,100.2-8,100.2-103.2C458.1,704.7,373.9,582,233.7,581.2z" id="svg_6" fill="#ffffff" fill-opacity="1"/><path d="M233.7,581.2C235.7,581.2,233.7,581.2,233.7,581.2L233.7,581.2z" id="svg_7" fill="#ffffff" fill-opacity="1"/></g></g><g id="svg_8" fill="#ffffff" fill-opacity="1"/><g id="svg_9" fill="#ffffff" fill-opacity="1"/><g id="svg_10" fill="#ffffff" fill-opacity="1"/><g id="svg_11" fill="#ffffff" fill-opacity="1"/><g id="svg_12" fill="#ffffff" fill-opacity="1"/><g id="svg_13" fill="#ffffff" fill-opacity="1"/><g id="svg_14" fill="#ffffff" fill-opacity="1"/><g id="svg_15" fill="#ffffff" fill-opacity="1"/><g id="svg_16" fill="#ffffff" fill-opacity="1"/><g id="svg_17" fill="#ffffff" fill-opacity="1"/><g id="svg_18" fill="#ffffff" fill-opacity="1"/><g id="svg_19" fill="#ffffff" fill-opacity="1"/><g id="svg_20" fill="#ffffff" fill-opacity="1"/><g id="svg_21" fill="#ffffff" fill-opacity="1"/><g id="svg_22" fill="#ffffff" fill-opacity="1"/></g></g></svg>