<?xml version="1.0" encoding="utf-8"?>
<!-- Svg Vector Icons : http://www.onlinewebfonts.com/icon -->
<!DOCTYPE svg PUBLIC "-//W3C//DTD SVG 1.1//EN" "http://www.w3.org/Graphics/SVG/1.1/DTD/svg11.dtd">
<svg version="1.1" xmlns="http://www.w3.org/2000/svg" xmlns:xlink="http://www.w3.org/1999/xlink" x="0px" y="0px" viewBox="0 0 1000 1000" enable-background="new 0 0 1000 1000" xml:space="preserve">
<metadata> Svg Vector Icons : http://www.onlinewebfonts.com/icon </metadata>
<g><g><g><path d="M955.7,296.9l-345-207.7c-21.4-12.9-49.1-13.3-70.9-1c-22.1,12.5-35.6,36-35.6,61.4v281.8l-58,18.1c-10.9,42.3-34.1,79.8-65.5,108.4c71.4,43.7,122.9,118.2,134.6,206c3.2,24.3,3.2,50.3,0,75.5l-0.5,3.8l17.5,10.6c11,6.6,23.6,10.1,36.4,10.1c7.2,0,14.2-1.1,21-3.2c0,0,222.9-69,296.9-92.8c68.8-22.1,103.2-71,103.2-104.4V357.3C990,332.7,976.9,309.5,955.7,296.9z M903.1,634.3l-312-187.9V178.8l312,187.8V634.3z"/><circle cx="234.1" cy="394.3" r="155.8"/><path d="M233.7,581.2C95.5,582,10,704.7,10,817.6c0,95.2,100.8,103.2,100.8,103.2h247.1c0,0,100.2-8,100.2-103.2C458.1,704.7,373.9,582,233.7,581.2z"/><path d="M233.7,581.2C235.7,581.2,233.7,581.2,233.7,581.2L233.7,581.2z"/></g></g><g></g><g></g><g></g><g></g><g></g><g></g><g></g><g></g><g></g><g></g><g></g><g></g><g></g><g></g><g></g></g>
</svg>